# xmcd
#
# Track frame offsets:
#	150
#	21005
#	40245
#	56630
#	74497
#	80340
#	98090
#	116355
#	131290
#	140427
#	152522
#	163985
#	180700
#	191800
#	202722
#	219510
#	246287
#
# Disc length: 3962 seconds
#
# Revision: 1
# Processed by: cddbd v1.5.2PL0 Copyright (c) Steve Scherf et al.
# Submitted via: audiograbber 1.81.03
#
DISCID=e80f7811
DTITLE=Pahud, Emmanuel / Paris
DYEAR=1997
DGENRE=Classical
TTITLE0=Francis POULENC / Sonate I : Allegro malinconico
TTITLE1=Francis POULENC / Sonate II : Cantilena
TTITLE2=Francis POULENC / Sonate III : Presto giocoso
TTITLE3=Henri DUTILLEUX / Sonatine I : Allegro
TTITLE4=Henri DUTILLEUX / Sonatine II : Andante
TTITLE5=Henri DUTILLEUX / Sonatine III : Animé
TTITLE6=Pierre SANCAN / Sonatine I : Moderato
TTITLE7=Pierre SANCAN / Sonatine II : Andante espressivo
TTITLE8=Pierre SANCAN / Sonatine III : Animé
TTITLE9=Jacques IBERT / Jeux (Sonatine) : Animé
TTITLE10=Jacques IBERT / Jeux (Sonatine) : Tendre
TTITLE11=Darius MILHAUD / Sonatine I : Tendre
TTITLE12=Darius MILHAUD / Sonatine II : Souple
TTITLE13=Darius MILHAUD / Sonatine III : Clair
TTITLE14=Jacques IBERT / Aria
TTITLE15=Olivier MESSIAEN / Le Merle noir
TTITLE16=André JOLIVET / Chant de Linos
EXTD=
EXTT0=Piano : Eric LE SAGE
EXTT1=Piano : Eric LE SAGE
EXTT2=Piano : Eric LE SAGE
EXTT3=Piano : Eric LE SAGE
EXTT4=Piano : Eric LE SAGE
EXTT5=Piano : Eric LE SAGE
EXTT6=Piano : Eric LE SAGE
EXTT7=Piano : Eric LE SAGE
EXTT8=Piano : Eric LE SAGE
EXTT9=Piano : Eric LE SAGE
EXTT10=Piano : Eric LE SAGE
EXTT11=Piano : Eric LE SAGE
EXTT12=Piano : Eric LE SAGE
EXTT13=Piano : Eric LE SAGE
EXTT14=Piano : Eric LE SAGE
EXTT15=Piano : Eric LE SAGE
EXTT16=Piano : Eric LE SAGE
PLAYORDER=
.
